<svg viewBox="0 0 1080 1080" fill="none" xmlns="http://www.w3.org/2000/svg">      <defs>  <filter id="filter" x="-20%" y="-20%" width="140%" height="140%" filterUnits="objectBoundingBox" primitiveUnits="userSpaceOnUse" color-interpolation-filters="linearRGB">    <feMorphology operator="dilate" radius="20 20" in="SourceAlpha" result="morphology"/>    <feFlood flood-color="#ffffff" flood-opacity="1" result="flood"/>    <feComposite in="flood" in2="morphology" operator="in" result="composite"/>    <feMerge result="merge">          <feMergeNode in="composite" result="mergeNode"/>      <feMergeNode in="SourceGraphic" result="mergeNode1"/>      </feMerge>  </filter></defs>      <g id="notion-avatar" filter="url(#filter)">        <g id="notion-avatar-face" fill="#ffffff">      <!--?xml version="1.0" encoding="UTF-8"?-->    <title>Face/ 9</title>    <g id="Face/-9" stroke="none" stroke-width="1" fill-rule="evenodd" stroke-linecap="round" stroke-linejoin="round">        <path d="M532,379 C664.54834,379 772,486.45166 772,619 C772,751.54834 704.54834,919 592,919 C506.683174,919 378.324367,822.776611 321.205121,718.475443 C318.188736,718.821948 315.115161,719 312,719 C267.81722,719 232,683.18278 232,639 C232,599.134956 261.158843,566.080325 299.312086,560.00055 C325.599297,455.979213 419.809919,379 532,379 Z M295.858895,624.545187 L304.141105,655.454813" id="Path" stroke="#000000" stroke-width="24"/>    </g>    </g><g id="notion-avatar-nose">      <!--?xml version="1.0" encoding="UTF-8"?-->    <title>Nose/ 10</title>    <g id="Nose/-10" stroke="none" stroke-width="1" fill="none" fill-rule="evenodd" stroke-linecap="round" stroke-linejoin="round">        <path d="M631,694.380659 C660.333333,687.46022 678,677.333333 684,664 C693,644 637.033407,606.392531 660.161467,579" id="Path" stroke="#000000" stroke-width="16"/>    </g>    </g><g id="notion-avatar-mouth">      <!--?xml version="1.0" encoding="UTF-8"?-->    <title>Mouth/ 1</title>    <g id="Mouth/-1" stroke="none" stroke-width="1" fill="none" fill-rule="evenodd" stroke-linecap="round" stroke-linejoin="round">        <path d="M549,759 C575.12979,773.666667 603.12979,781 633,781 C662.87021,781 682.87021,773.666667 693,759" id="Path" stroke="#000000" stroke-width="16"/>    </g>    </g><g id="notion-avatar-eyes">      <!--?xml version="1.0" encoding="UTF-8"?-->    <title>Eyes/ 4</title>    <g id="Eyes/-4" stroke="none" stroke-width="1" fill="none" fill-rule="evenodd">        <path d="M570,516 C583.254834,516 594,526.745166 594,540 C594,553.254834 583.254834,564 570,564 C556.745166,564 546,553.254834 546,540 C546,526.745166 556.745166,516 570,516 Z M708,516 C721.254834,516 732,526.745166 732,540 C732,553.254834 721.254834,564 708,564 C694.745166,564 684,553.254834 684,540 C684,526.745166 694.745166,516 708,516 Z M562,526 C558.686292,526 556,528.686292 556,532 C556,535.313708 558.686292,538 562,538 C565.313708,538 568,535.313708 568,532 C568,528.686292 565.313708,526 562,526 Z M700,526 C696.686292,526 694,528.686292 694,532 C694,535.313708 696.686292,538 700,538 C703.313708,538 706,535.313708 706,532 C706,528.686292 703.313708,526 700,526 Z" id="Combined-Shape" fill="#000000"/>    </g>    </g><g id="notion-avatar-eyebrows">      <!--?xml version="1.0" encoding="UTF-8"?-->    <title>Eyebrows/ 6</title>    <g id="Eyebrows/-6" stroke="none" stroke-width="1" fill="none" fill-rule="evenodd" stroke-linecap="round" stroke-linejoin="round">        <path d="M620,495.140162 C589.850248,491.823271 565.234864,491.823271 546.153846,495.140162 C527.072829,498.457053 511.688213,505.410333 500,516 C517.257672,497.488903 532.642287,487.058984 546.153846,484.710243 C559.665405,482.361502 584.280789,485.838142 620,495.140162 Z M658,495.140162 C693.719211,485.838142 718.334595,482.361502 731.846154,484.710243 C745.357713,487.058984 760.742328,497.488903 778,516 C766.311787,505.410333 750.927171,498.457053 731.846154,495.140162 C712.765136,491.823271 688.149752,491.823271 658,495.140162 Z" id="Combined-Shape" stroke="#000000" stroke-width="8" fill="#000000"/>    </g>    </g><g id="notion-avatar-glasses">      <!--?xml version="1.0" encoding="UTF-8"?-->    <title>Glasses/ 3</title>    <g id="Glasses/-3" stroke="none" stroke-width="1" fill="none" fill-rule="evenodd" stroke-linecap="round" stroke-linejoin="round">        <g id="Group" transform="translate(293.000000, 488.000000)" stroke="#000000" stroke-width="8">            <path d="M197.493245,10.4280671 C174.636102,27.3582996 188.604356,103.544346 244.477372,103.544346 C300.350388,103.544346 337.149222,42.6997481 325.747213,20.1024857 C314.345204,-2.49477675 220.350388,-6.50216547 197.493245,10.4280671 Z" id="Path"/>            <path d="M376.540864,10.4280671 C353.683721,27.3582996 367.651975,103.544346 423.524991,103.544346 C479.398007,103.544346 516.196841,42.6997481 504.794832,20.1024857 C493.392823,-2.49477675 399.398007,-6.50216547 376.540864,10.4280671 Z" id="Path" transform="translate(436.458153, 51.772173) scale(-1, 1) translate(-436.458153, -51.772173) "/>            <line x1="301.285714" y1="5.44186047" x2="392.714286" y2="5.44186047" id="Path"/>            <line x1="326.68254" y1="21.1627907" x2="367.31746" y2="21.1627907" id="Path"/>            <line x1="186.554557" y1="30.8015819" x2="1.25992802" y2="69.9860126" id="Path" transform="translate(94.259928, 50.646655) rotate(1.361411) translate(-94.259928, -50.646655) "/>        </g>    </g>    </g><g id="notion-avatar-hair">      <!--?xml version="1.0" encoding="UTF-8"?-->    <title>Hairstyle/ 15</title>    <g id="Hairstyle/-15" stroke="none" stroke-width="1" fill="none" fill-rule="evenodd" stroke-linecap="round" stroke-linejoin="round">        <path d="M287.145773,564.824988 L328.116663,564.824988 L366,655 C370.666667,589.394941 373,550.728275 373,539 C373,521.407588 342.295767,484.522372 366,454 C377.664033,438.980996 400.953019,418.040292 417,414 C433.564497,409.829408 298,383 268,471 C248,529.666667 254.381924,560.941663 287.145773,564.824988 Z" id="Path" stroke="#000000" stroke-width="12" fill="#000000"/>    </g>    </g><g id="notion-avatar-accessories">      <g id="Accessories/ 12"><g id="Group"><path id="Path" d="M848.364 445.584C849.787 445.071 851.352 445.115 852.744 445.707L850.397 451.229C852.744 445.707 852.745 445.707 852.747 445.708L852.75 445.709L852.759 445.713L852.787 445.725L852.876 445.763C852.95 445.796 853.054 445.841 853.185 445.899C853.448 446.015 853.819 446.182 854.28 446.396C855.199 446.822 856.483 447.439 857.966 448.21C860.889 449.731 864.778 451.952 868.204 454.609C871.355 457.053 875.296 460.743 876.573 465.471C877.29 468.125 877.144 471.033 875.712 473.814C874.356 476.446 872.1 478.476 869.469 480.075C863.829 483.501 856.637 484.18 849.944 483.852C843.082 483.515 835.794 482.064 829.258 480.353C822.687 478.634 816.679 476.6 812.325 475.003C810.143 474.202 808.364 473.506 807.122 473.007C806.501 472.758 806.014 472.557 805.677 472.417C805.509 472.347 805.378 472.292 805.287 472.253L805.18 472.208L805.15 472.195L805.14 472.191L805.137 472.19C805.136 472.189 805.135 472.189 807.503 466.676L805.135 472.189C802.871 471.216 801.432 468.958 801.506 466.495C801.58 464.033 803.152 461.866 805.47 461.031L848.364 445.584Z" fill="white" stroke="black" stroke-width="12" stroke-linecap="round" stroke-linejoin="round"/><path id="Path_2" d="M861.983 450.136C864.506 451.321 865.881 454.088 865.301 456.815C864.721 459.542 862.34 461.51 859.552 461.566L859.551 461.566L859.536 461.566L859.47 461.568C859.409 461.569 859.315 461.571 859.191 461.575C858.941 461.581 858.568 461.592 858.084 461.609C857.116 461.642 855.708 461.697 853.968 461.787C850.482 461.968 845.689 462.285 840.45 462.832C829.639 463.959 818.065 465.961 811.673 469.176C782.246 483.973 750.71 499.226 720.703 510.561C690.825 521.848 661.816 529.509 637.597 528.591C594.287 526.948 545.131 507.141 507.283 488.165C488.255 478.625 471.883 469.19 460.266 462.139C454.454 458.612 449.826 455.678 446.644 453.62C445.052 452.591 443.822 451.781 442.985 451.225C442.566 450.947 442.246 450.733 442.028 450.587L441.908 450.506L441.779 450.419L441.713 450.374L441.695 450.362L441.689 450.358C441.688 450.357 441.686 450.356 445.06 445.395L441.686 450.356C439.683 448.994 438.696 446.561 439.183 444.188C439.67 441.815 441.536 439.968 443.914 439.505L721.566 385.467C722.815 385.223 724.11 385.384 725.262 385.925L861.983 450.136Z" fill="white" stroke="black" stroke-width="12" stroke-linecap="round" stroke-linejoin="round"/><path id="Path_3" d="M742.712 401.356L748.621 400.312C749.13 403.194 747.486 406.022 744.73 407.006L742.712 401.356ZM742.712 401.356C748.621 400.312 748.62 400.309 748.619 400.304L748.617 400.291L748.61 400.25C748.604 400.217 748.595 400.17 748.584 400.111C748.562 399.993 748.531 399.825 748.489 399.607C748.405 399.173 748.279 398.542 748.108 397.73C747.765 396.106 747.239 393.752 746.495 390.777C745.007 384.828 742.644 376.386 739.126 366.312C732.097 346.184 720.417 319.43 701.806 293.031C664.434 240.023 599.167 188.634 488.669 195.067C378.312 201.491 322.938 256.206 295.494 309.669C281.857 336.234 275.177 362.341 271.899 381.774C270.257 391.502 269.462 399.591 269.078 405.274C268.886 408.116 268.796 410.36 268.754 411.909C268.734 412.683 268.725 413.284 268.721 413.7C268.72 413.908 268.719 414.07 268.719 414.184C268.719 414.241 268.719 414.286 268.72 414.319L268.72 414.359L268.72 414.372C268.72 414.377 268.72 414.381 274.72 414.327M742.712 401.356C744.73 407.006 744.729 407.007 744.728 407.007L744.725 407.008L744.714 407.012L744.672 407.027L744.508 407.085C744.364 407.136 744.151 407.212 743.872 407.311C743.314 407.508 742.491 407.798 741.428 408.169C739.303 408.913 736.215 409.984 732.358 411.298C724.646 413.926 713.849 417.531 701.507 421.436C676.883 429.227 645.881 438.29 620.931 443.146C596.034 447.992 557.102 452.549 524.587 455.885C508.288 457.557 493.533 458.929 482.852 459.883C477.511 460.36 473.188 460.733 470.198 460.986C468.703 461.113 467.542 461.21 466.753 461.275C466.359 461.308 466.058 461.333 465.855 461.349L465.625 461.368L465.566 461.373L465.551 461.374L465.548 461.375C465.547 461.375 465.546 461.375 465.061 455.394M274.72 414.327C270.992 419.028 270.993 419.029 270.994 419.03L270.998 419.033L271.006 419.039L271.031 419.059L271.116 419.126C271.189 419.182 271.291 419.262 271.423 419.364C271.687 419.567 272.069 419.858 272.564 420.228C273.553 420.966 274.994 422.017 276.837 423.298C280.521 425.858 285.828 429.346 292.372 433.1C305.414 440.58 323.591 449.24 343.776 453.595C363.727 457.9 394.227 459.822 419.367 460.692C432.015 461.13 443.442 461.306 451.706 461.372C455.839 461.405 459.184 461.41 461.499 461.408C462.656 461.406 463.556 461.403 464.168 461.4C464.475 461.398 464.709 461.397 464.867 461.396L465.048 461.395L465.095 461.394L465.107 461.394L465.11 461.394C465.111 461.394 465.112 461.394 465.061 455.394M274.72 414.327L270.992 419.028C269.571 417.902 268.736 416.194 268.72 414.381L274.72 414.327ZM465.061 455.394L465.546 461.375C465.402 461.386 465.257 461.393 465.112 461.394L465.061 455.394Z" fill="white" stroke="black" stroke-width="12" stroke-linecap="round" stroke-linejoin="round"/><path id="Oval" d="M467.691 222.831C459.814 223.798 452.181 223.033 446.139 220.727C440.381 218.529 434.472 214.203 433.606 207.15C432.739 200.096 437.427 194.469 442.482 190.944C447.787 187.244 455.008 184.655 462.885 183.688C470.762 182.721 478.395 183.486 484.437 185.792C490.196 187.99 496.105 192.316 496.971 199.369C497.837 206.423 493.15 212.05 488.094 215.575C482.789 219.275 475.568 221.864 467.691 222.831Z" fill="white" stroke="black" stroke-width="12" stroke-linecap="round" stroke-linejoin="round"/></g></g>    </g><g id="notion-avatar-details">      <!--?xml version="1.0" encoding="UTF-8"?-->    <title>Details/ 0</title>    <g id="Details/-0" stroke="none" stroke-width="1" fill="none" fill-rule="evenodd"/>    </g><g id="notion-avatar-beard">      <!--?xml version="1.0" encoding="UTF-8"?-->    <title>Beard/ 0</title>    <g id="Beard/-0" stroke="none" stroke-width="1" fill="none" fill-rule="evenodd"/>    </g>      </g>      </svg>